<?xml version="1.0" standalone="no"?>
<!DOCTYPE svg PUBLIC "-//W3C//DTD SVG 20010904//EN"
 "http://www.w3.org/TR/2001/REC-SVG-20010904/DTD/svg10.dtd">
<svg version="1.0" xmlns="http://www.w3.org/2000/svg"
 width="315.000000pt" height="308.000000pt" viewBox="0 0 315.000000 308.000000"
 preserveAspectRatio="xMidYMid meet">
<metadata>
Created by potrace 1.16, written by Peter Selinger 2001-2019
</metadata>
<g transform="translate(0.000000,308.000000) scale(0.100000,-0.100000)"
fill="#000000" stroke="none">
<path d="M923 2150 c-59 -12 -97 -34 -131 -76 -85 -103 -57 -285 52 -349 116
-68 267 -39 336 64 32 48 40 171 16 235 -37 96 -153 150 -273 126z"/>
<path d="M2090 2141 c-122 -43 -178 -169 -138 -305 16 -53 81 -118 134 -134
55 -16 147 -15 188 2 48 20 107 75 127 121 34 74 19 179 -36 250 -53 70 -179
100 -275 66z"/>
<path d="M1424 1165 c-165 -30 -287 -82 -411 -174 -89 -66 -107 -85 -122 -124
-23 -61 36 -118 129 -125 52 -4 60 -1 120 40 97 65 147 93 230 124 69 26 86
28 210 28 128 0 139 -1 222 -33 48 -18 128 -60 178 -93 126 -83 184 -89 255
-27 59 52 41 112 -56 189 -212 168 -499 242 -755 195z"/>
</g>
</svg>
