<?xml version="1.0" standalone="no"?>
<!DOCTYPE svg PUBLIC "-//W3C//DTD SVG 20010904//EN"
 "http://www.w3.org/TR/2001/REC-SVG-20010904/DTD/svg10.dtd">
<svg version="1.0" xmlns="http://www.w3.org/2000/svg"
 width="315.000000pt" height="308.000000pt" viewBox="0 0 315.000000 308.000000"
 preserveAspectRatio="xMidYMid meet">
<metadata>
Created by potrace 1.16, written by Peter Selinger 2001-2019
</metadata>
<g transform="translate(0.000000,308.000000) scale(0.100000,-0.100000)"
fill="#000000" stroke="none">
<path d="M911 2139 c-68 -13 -115 -50 -146 -114 -25 -50 -27 -64 -23 -131 6
-97 38 -146 118 -187 99 -49 211 -35 286 37 50 49 68 104 61 191 -8 112 -66
181 -167 204 -52 12 -68 12 -129 0z"/>
<path d="M2113 2140 c-80 -17 -129 -55 -158 -122 -21 -52 -19 -162 4 -213 77
-169 346 -171 432 -3 17 34 20 55 17 124 -3 72 -7 88 -33 126 -51 73 -160 109
-262 88z"/>
<path d="M2090 1153 c-8 -3 -41 -23 -72 -45 -151 -101 -295 -152 -438 -152
-151 0 -273 41 -431 145 -66 43 -81 49 -129 49 -80 0 -160 -52 -160 -104 0
-43 172 -174 321 -246 128 -61 218 -80 373 -80 254 0 435 61 632 211 145 111
136 219 -19 226 -34 1 -69 0 -77 -4z"/>
</g>
</svg>
